<mxfile host="Electron" modified="2023-10-20T04:51:47.582Z" agent="Mozilla/5.0 (Windows NT 10.0; Win64; x64) AppleWebKit/537.36 (KHTML, like Gecko) draw.io/22.0.2 Chrome/114.0.5735.289 Electron/25.8.4 Safari/537.36" etag="xsWqGOcOwLLGfWEc7Cyf" version="22.0.2" type="device">
  <diagram name="Page-1" id="bZvH7t3IzZ0Hs1LZ_VAx">
    <mxGraphModel dx="1900" dy="668" grid="1" gridSize="10" guides="1" tooltips="1" connect="1" arrows="1" fold="1" page="1" pageScale="1" pageWidth="850" pageHeight="1100" math="0" shadow="0">
      <root>
        <mxCell id="0" />
        <mxCell id="1" parent="0" />
        <mxCell id="wsNLmnlUrqFCGvk7a0OT-7" value="Region 1" style="sketch=0;outlineConnect=0;gradientColor=none;html=1;whiteSpace=wrap;fontSize=12;fontStyle=0;shape=mxgraph.aws4.group;grIcon=mxgraph.aws4.group_region;strokeColor=#879196;fillColor=none;verticalAlign=top;align=left;spacingLeft=30;fontColor=#879196;dashed=1;" parent="1" vertex="1">
          <mxGeometry x="-100" y="1475.54" width="469" height="433" as="geometry" />
        </mxCell>
        <mxCell id="3fd4jC6mWOSNVd5eNcLv-1" value="Web Client" style="rounded=1;whiteSpace=wrap;html=1;" parent="1" vertex="1">
          <mxGeometry x="260" y="160" width="120" height="60" as="geometry" />
        </mxCell>
        <mxCell id="3fd4jC6mWOSNVd5eNcLv-2" value="Mobile Client" style="rounded=1;whiteSpace=wrap;html=1;" parent="1" vertex="1">
          <mxGeometry x="510" y="160" width="120" height="60" as="geometry" />
        </mxCell>
        <mxCell id="3fd4jC6mWOSNVd5eNcLv-3" value="REST API" style="rounded=1;whiteSpace=wrap;html=1;" parent="1" vertex="1">
          <mxGeometry x="260" y="340" width="370" height="60" as="geometry" />
        </mxCell>
        <mxCell id="3fd4jC6mWOSNVd5eNcLv-4" value="" style="endArrow=classic;startArrow=classic;html=1;rounded=0;entryX=0.5;entryY=1;entryDx=0;entryDy=0;exitX=0.159;exitY=0.017;exitDx=0;exitDy=0;exitPerimeter=0;" parent="1" source="3fd4jC6mWOSNVd5eNcLv-3" target="3fd4jC6mWOSNVd5eNcLv-1" edge="1">
          <mxGeometry width="50" height="50" relative="1" as="geometry">
            <mxPoint x="295" y="290" as="sourcePoint" />
            <mxPoint x="345" y="240" as="targetPoint" />
          </mxGeometry>
        </mxCell>
        <mxCell id="3fd4jC6mWOSNVd5eNcLv-5" value="" style="endArrow=classic;startArrow=classic;html=1;rounded=0;entryX=0.5;entryY=1;entryDx=0;entryDy=0;exitX=0.159;exitY=0.017;exitDx=0;exitDy=0;exitPerimeter=0;" parent="1" edge="1">
          <mxGeometry width="50" height="50" relative="1" as="geometry">
            <mxPoint x="569.5" y="341" as="sourcePoint" />
            <mxPoint x="570.5" y="220" as="targetPoint" />
          </mxGeometry>
        </mxCell>
        <mxCell id="3fd4jC6mWOSNVd5eNcLv-6" value="Controller" style="rounded=1;whiteSpace=wrap;html=1;" parent="1" vertex="1">
          <mxGeometry x="381" y="621" width="120" height="60" as="geometry" />
        </mxCell>
        <mxCell id="wsNLmnlUrqFCGvk7a0OT-27" style="edgeStyle=orthogonalEdgeStyle;rounded=0;orthogonalLoop=1;jettySize=auto;html=1;exitX=0;exitY=0.5;exitDx=0;exitDy=0;" parent="1" source="3fd4jC6mWOSNVd5eNcLv-7" target="wsNLmnlUrqFCGvk7a0OT-25" edge="1">
          <mxGeometry relative="1" as="geometry" />
        </mxCell>
        <mxCell id="wsNLmnlUrqFCGvk7a0OT-28" value="Media upload" style="edgeLabel;html=1;align=center;verticalAlign=middle;resizable=0;points=[];" parent="wsNLmnlUrqFCGvk7a0OT-27" vertex="1" connectable="0">
          <mxGeometry x="0.0369" y="-1" relative="1" as="geometry">
            <mxPoint x="1" as="offset" />
          </mxGeometry>
        </mxCell>
        <mxCell id="3fd4jC6mWOSNVd5eNcLv-7" value="Service" style="rounded=1;whiteSpace=wrap;html=1;" parent="1" vertex="1">
          <mxGeometry x="200" y="751" width="500" height="60" as="geometry" />
        </mxCell>
        <mxCell id="3fd4jC6mWOSNVd5eNcLv-9" value="" style="shape=cylinder3;whiteSpace=wrap;html=1;boundedLbl=1;backgroundOutline=1;size=15;" parent="1" vertex="1">
          <mxGeometry x="-16" y="1648.54" width="60" height="80" as="geometry" />
        </mxCell>
        <mxCell id="3fd4jC6mWOSNVd5eNcLv-11" value="" style="endArrow=classic;startArrow=classic;html=1;rounded=0;exitX=0.48;exitY=-0.017;exitDx=0;exitDy=0;entryX=0.5;entryY=1;entryDx=0;entryDy=0;exitPerimeter=0;" parent="1" source="3fd4jC6mWOSNVd5eNcLv-7" target="3fd4jC6mWOSNVd5eNcLv-6" edge="1">
          <mxGeometry width="50" height="50" relative="1" as="geometry">
            <mxPoint x="606" y="761" as="sourcePoint" />
            <mxPoint x="606" y="671" as="targetPoint" />
          </mxGeometry>
        </mxCell>
        <mxCell id="wsNLmnlUrqFCGvk7a0OT-65" value="" style="edgeStyle=orthogonalEdgeStyle;rounded=0;orthogonalLoop=1;jettySize=auto;html=1;" parent="1" source="3fd4jC6mWOSNVd5eNcLv-18" target="wsNLmnlUrqFCGvk7a0OT-64" edge="1">
          <mxGeometry relative="1" as="geometry" />
        </mxCell>
        <mxCell id="3fd4jC6mWOSNVd5eNcLv-18" value="PostgreSQL" style="text;html=1;align=center;verticalAlign=middle;resizable=0;points=[];autosize=1;strokeColor=none;fillColor=none;" parent="1" vertex="1">
          <mxGeometry x="-31" y="1735.54" width="90" height="30" as="geometry" />
        </mxCell>
        <mxCell id="Yfykrfn6tUtUSNl4Is9B-3" value="" style="endArrow=classic;html=1;rounded=0;exitX=0.5;exitY=1;exitDx=0;exitDy=0;" parent="1" edge="1">
          <mxGeometry width="50" height="50" relative="1" as="geometry">
            <mxPoint x="396" y="811" as="sourcePoint" />
            <mxPoint x="396" y="881" as="targetPoint" />
          </mxGeometry>
        </mxCell>
        <mxCell id="Yfykrfn6tUtUSNl4Is9B-7" value="validateData &amp;amp; createSchema" style="edgeLabel;html=1;align=center;verticalAlign=middle;resizable=0;points=[];" parent="Yfykrfn6tUtUSNl4Is9B-3" vertex="1" connectable="0">
          <mxGeometry x="-0.1558" y="-2" relative="1" as="geometry">
            <mxPoint as="offset" />
          </mxGeometry>
        </mxCell>
        <mxCell id="Yfykrfn6tUtUSNl4Is9B-4" value="Prisma" style="rounded=1;whiteSpace=wrap;html=1;" parent="1" vertex="1">
          <mxGeometry x="196" y="1001" width="90" height="40" as="geometry" />
        </mxCell>
        <mxCell id="Yfykrfn6tUtUSNl4Is9B-9" value="REDIS OM" style="rounded=1;whiteSpace=wrap;html=1;" parent="1" vertex="1">
          <mxGeometry x="586" y="1001" width="115" height="40" as="geometry" />
        </mxCell>
        <mxCell id="Yfykrfn6tUtUSNl4Is9B-10" value="" style="endArrow=classic;startArrow=classic;html=1;rounded=0;exitX=0.5;exitY=0;exitDx=0;exitDy=0;entryX=1;entryY=1;entryDx=0;entryDy=0;" parent="1" source="Yfykrfn6tUtUSNl4Is9B-9" target="Yfykrfn6tUtUSNl4Is9B-12" edge="1">
          <mxGeometry width="50" height="50" relative="1" as="geometry">
            <mxPoint x="546" y="971" as="sourcePoint" />
            <mxPoint x="496" y="911" as="targetPoint" />
          </mxGeometry>
        </mxCell>
        <mxCell id="Yfykrfn6tUtUSNl4Is9B-16" value="If cache hit" style="edgeLabel;html=1;align=center;verticalAlign=middle;resizable=0;points=[];" parent="Yfykrfn6tUtUSNl4Is9B-10" vertex="1" connectable="0">
          <mxGeometry x="0.1347" relative="1" as="geometry">
            <mxPoint as="offset" />
          </mxGeometry>
        </mxCell>
        <mxCell id="Yfykrfn6tUtUSNl4Is9B-12" value="Model" style="rounded=1;whiteSpace=wrap;html=1;" parent="1" vertex="1">
          <mxGeometry x="381" y="881" width="125" height="40" as="geometry" />
        </mxCell>
        <mxCell id="JOVzsIex6KIDobaa7Ffz-3" value="" style="shape=cylinder3;whiteSpace=wrap;html=1;boundedLbl=1;backgroundOutline=1;size=15;" parent="1" vertex="1">
          <mxGeometry x="79" y="1648.54" width="60" height="80" as="geometry" />
        </mxCell>
        <mxCell id="JOVzsIex6KIDobaa7Ffz-4" value="MongoDB" style="text;html=1;align=center;verticalAlign=middle;resizable=0;points=[];autosize=1;strokeColor=none;fillColor=none;" parent="1" vertex="1">
          <mxGeometry x="69" y="1735.54" width="80" height="30" as="geometry" />
        </mxCell>
        <mxCell id="nnYfIL-WBL84cnIaJR4v-1" value="" style="endArrow=classic;html=1;rounded=0;exitX=0.5;exitY=1;exitDx=0;exitDy=0;entryX=0;entryY=0.5;entryDx=0;entryDy=0;" parent="1" source="Yfykrfn6tUtUSNl4Is9B-12" target="Yfykrfn6tUtUSNl4Is9B-9" edge="1">
          <mxGeometry width="50" height="50" relative="1" as="geometry">
            <mxPoint x="506" y="1111" as="sourcePoint" />
            <mxPoint x="556" y="1061" as="targetPoint" />
          </mxGeometry>
        </mxCell>
        <mxCell id="nnYfIL-WBL84cnIaJR4v-2" value="Insert data if catch miss" style="edgeLabel;html=1;align=center;verticalAlign=middle;resizable=0;points=[];" parent="nnYfIL-WBL84cnIaJR4v-1" vertex="1" connectable="0">
          <mxGeometry x="-0.0385" y="-2" relative="1" as="geometry">
            <mxPoint x="-5" y="20" as="offset" />
          </mxGeometry>
        </mxCell>
        <mxCell id="nnYfIL-WBL84cnIaJR4v-3" value="" style="endArrow=classic;html=1;rounded=0;exitX=0.852;exitY=-0.008;exitDx=0;exitDy=0;exitPerimeter=0;entryX=0.573;entryY=1.025;entryDx=0;entryDy=0;entryPerimeter=0;" parent="1" source="Yfykrfn6tUtUSNl4Is9B-12" target="3fd4jC6mWOSNVd5eNcLv-7" edge="1">
          <mxGeometry width="50" height="50" relative="1" as="geometry">
            <mxPoint x="536" y="881" as="sourcePoint" />
            <mxPoint x="586" y="831" as="targetPoint" />
          </mxGeometry>
        </mxCell>
        <mxCell id="nnYfIL-WBL84cnIaJR4v-4" value="JWT Autthentication" style="rounded=1;whiteSpace=wrap;html=1;" parent="1" vertex="1">
          <mxGeometry x="256" y="480" width="160" height="60" as="geometry" />
        </mxCell>
        <mxCell id="nnYfIL-WBL84cnIaJR4v-11" value="" style="endArrow=classic;html=1;rounded=0;exitX=0.073;exitY=1.097;exitDx=0;exitDy=0;exitPerimeter=0;entryX=0;entryY=0;entryDx=0;entryDy=0;" parent="1" source="3fd4jC6mWOSNVd5eNcLv-3" target="nnYfIL-WBL84cnIaJR4v-4" edge="1">
          <mxGeometry width="50" height="50" relative="1" as="geometry">
            <mxPoint x="445" y="400" as="sourcePoint" />
            <mxPoint x="670" y="400" as="targetPoint" />
          </mxGeometry>
        </mxCell>
        <mxCell id="nnYfIL-WBL84cnIaJR4v-12" value="createJWT/requestResourcesWithJWT" style="edgeLabel;html=1;align=center;verticalAlign=middle;resizable=0;points=[];" parent="nnYfIL-WBL84cnIaJR4v-11" vertex="1" connectable="0">
          <mxGeometry x="-0.0753" y="-2" relative="1" as="geometry">
            <mxPoint x="-3" y="2" as="offset" />
          </mxGeometry>
        </mxCell>
        <mxCell id="nnYfIL-WBL84cnIaJR4v-13" value="" style="endArrow=classic;html=1;rounded=0;exitX=0.811;exitY=0.003;exitDx=0;exitDy=0;exitPerimeter=0;" parent="1" source="nnYfIL-WBL84cnIaJR4v-4" target="3fd4jC6mWOSNVd5eNcLv-3" edge="1">
          <mxGeometry width="50" height="50" relative="1" as="geometry">
            <mxPoint x="730" y="440" as="sourcePoint" />
            <mxPoint x="510" y="420" as="targetPoint" />
          </mxGeometry>
        </mxCell>
        <mxCell id="nnYfIL-WBL84cnIaJR4v-15" value="" style="endArrow=classic;html=1;rounded=0;exitX=0.5;exitY=1;exitDx=0;exitDy=0;entryX=0.5;entryY=0;entryDx=0;entryDy=0;" parent="1" source="nnYfIL-WBL84cnIaJR4v-4" target="3fd4jC6mWOSNVd5eNcLv-6" edge="1">
          <mxGeometry width="50" height="50" relative="1" as="geometry">
            <mxPoint x="490" y="590" as="sourcePoint" />
            <mxPoint x="540" y="540" as="targetPoint" />
          </mxGeometry>
        </mxCell>
        <mxCell id="nnYfIL-WBL84cnIaJR4v-16" value="" style="endArrow=classic;html=1;rounded=0;exitX=0.5;exitY=0;exitDx=0;exitDy=0;entryX=0.5;entryY=1;entryDx=0;entryDy=0;" parent="1" source="3fd4jC6mWOSNVd5eNcLv-6" target="3fd4jC6mWOSNVd5eNcLv-3" edge="1">
          <mxGeometry width="50" height="50" relative="1" as="geometry">
            <mxPoint x="540" y="590" as="sourcePoint" />
            <mxPoint x="590" y="540" as="targetPoint" />
          </mxGeometry>
        </mxCell>
        <mxCell id="IiDk9npAR5h1ZLst--qR-1" value="" style="endArrow=classic;html=1;rounded=0;exitX=0.5;exitY=1;exitDx=0;exitDy=0;entryX=1;entryY=0;entryDx=0;entryDy=0;" parent="1" source="Yfykrfn6tUtUSNl4Is9B-12" target="Yfykrfn6tUtUSNl4Is9B-4" edge="1">
          <mxGeometry width="50" height="50" relative="1" as="geometry">
            <mxPoint x="280" y="970" as="sourcePoint" />
            <mxPoint x="330" y="920" as="targetPoint" />
          </mxGeometry>
        </mxCell>
        <mxCell id="IiDk9npAR5h1ZLst--qR-7" value="insert data" style="edgeLabel;html=1;align=center;verticalAlign=middle;resizable=0;points=[];" parent="IiDk9npAR5h1ZLst--qR-1" vertex="1" connectable="0">
          <mxGeometry x="0.1049" y="1" relative="1" as="geometry">
            <mxPoint x="9" as="offset" />
          </mxGeometry>
        </mxCell>
        <mxCell id="IiDk9npAR5h1ZLst--qR-4" value="" style="endArrow=classic;html=1;rounded=0;exitX=0.25;exitY=0;exitDx=0;exitDy=0;entryX=0;entryY=1;entryDx=0;entryDy=0;" parent="1" source="Yfykrfn6tUtUSNl4Is9B-4" target="Yfykrfn6tUtUSNl4Is9B-12" edge="1">
          <mxGeometry width="50" height="50" relative="1" as="geometry">
            <mxPoint x="230" y="960" as="sourcePoint" />
            <mxPoint x="280" y="910" as="targetPoint" />
          </mxGeometry>
        </mxCell>
        <mxCell id="IiDk9npAR5h1ZLst--qR-5" value="If cache miss" style="edgeLabel;html=1;align=center;verticalAlign=middle;resizable=0;points=[];" parent="IiDk9npAR5h1ZLst--qR-4" vertex="1" connectable="0">
          <mxGeometry x="-0.0382" y="2" relative="1" as="geometry">
            <mxPoint as="offset" />
          </mxGeometry>
        </mxCell>
        <mxCell id="wsNLmnlUrqFCGvk7a0OT-2" value="Amazon Route 53" style="sketch=0;outlineConnect=0;fontColor=#232F3E;gradientColor=none;strokeColor=#ffffff;fillColor=#232F3E;dashed=0;verticalLabelPosition=middle;verticalAlign=bottom;align=center;html=1;whiteSpace=wrap;fontSize=10;fontStyle=1;spacing=3;shape=mxgraph.aws4.productIcon;prIcon=mxgraph.aws4.route_53;" parent="1" vertex="1">
          <mxGeometry x="431" y="1210" width="80" height="110" as="geometry" />
        </mxCell>
        <mxCell id="wsNLmnlUrqFCGvk7a0OT-22" value="" style="endArrow=classic;html=1;rounded=0;exitX=-0.012;exitY=0.818;exitDx=0;exitDy=0;exitPerimeter=0;" parent="1" source="wsNLmnlUrqFCGvk7a0OT-2" target="wsNLmnlUrqFCGvk7a0OT-7" edge="1">
          <mxGeometry width="50" height="50" relative="1" as="geometry">
            <mxPoint x="400" y="1450.0048117839606" as="sourcePoint" />
            <mxPoint x="439" y="1538.54" as="targetPoint" />
          </mxGeometry>
        </mxCell>
        <mxCell id="wsNLmnlUrqFCGvk7a0OT-25" value="" style="outlineConnect=0;dashed=0;verticalLabelPosition=bottom;verticalAlign=top;align=center;html=1;shape=mxgraph.aws3.s3;fillColor=#E05243;gradientColor=none;" parent="1" vertex="1">
          <mxGeometry x="-505" y="734.5" width="76.5" height="93" as="geometry" />
        </mxCell>
        <mxCell id="wsNLmnlUrqFCGvk7a0OT-26" value="AWS S3" style="text;html=1;align=center;verticalAlign=middle;resizable=0;points=[];autosize=1;strokeColor=none;fillColor=none;" parent="1" vertex="1">
          <mxGeometry x="-500" y="838" width="70" height="30" as="geometry" />
        </mxCell>
        <mxCell id="wsNLmnlUrqFCGvk7a0OT-29" value="" style="outlineConnect=0;dashed=0;verticalLabelPosition=bottom;verticalAlign=top;align=center;html=1;shape=mxgraph.aws3.bucket;fillColor=#E05243;gradientColor=none;" parent="1" vertex="1">
          <mxGeometry x="-725" y="750" width="60" height="61.5" as="geometry" />
        </mxCell>
        <mxCell id="wsNLmnlUrqFCGvk7a0OT-30" value="Buckets" style="text;html=1;align=center;verticalAlign=middle;resizable=0;points=[];autosize=1;strokeColor=none;fillColor=none;" parent="1" vertex="1">
          <mxGeometry x="-730" y="808" width="70" height="30" as="geometry" />
        </mxCell>
        <mxCell id="wsNLmnlUrqFCGvk7a0OT-31" style="edgeStyle=orthogonalEdgeStyle;rounded=0;orthogonalLoop=1;jettySize=auto;html=1;exitX=0;exitY=0.5;exitDx=0;exitDy=0;exitPerimeter=0;entryX=0.94;entryY=0.5;entryDx=0;entryDy=0;entryPerimeter=0;" parent="1" source="wsNLmnlUrqFCGvk7a0OT-25" target="wsNLmnlUrqFCGvk7a0OT-29" edge="1">
          <mxGeometry relative="1" as="geometry" />
        </mxCell>
        <mxCell id="wsNLmnlUrqFCGvk7a0OT-32" value="" style="image;sketch=0;aspect=fixed;html=1;points=[];align=center;fontSize=12;image=img/lib/mscae/Cache_Redis_Product.svg;" parent="1" vertex="1">
          <mxGeometry x="259" y="1668.54" width="50" height="42" as="geometry" />
        </mxCell>
        <mxCell id="wsNLmnlUrqFCGvk7a0OT-33" value="Redis cache" style="text;html=1;align=center;verticalAlign=middle;resizable=0;points=[];autosize=1;strokeColor=none;fillColor=none;" parent="1" vertex="1">
          <mxGeometry x="239" y="1718.54" width="90" height="30" as="geometry" />
        </mxCell>
        <mxCell id="wsNLmnlUrqFCGvk7a0OT-36" value="" style="endArrow=classic;startArrow=classic;html=1;rounded=0;exitX=0.5;exitY=1;exitDx=0;exitDy=0;" parent="1" source="Yfykrfn6tUtUSNl4Is9B-4" target="wsNLmnlUrqFCGvk7a0OT-2" edge="1">
          <mxGeometry width="50" height="50" relative="1" as="geometry">
            <mxPoint x="370" y="1170" as="sourcePoint" />
            <mxPoint x="420" y="1120" as="targetPoint" />
          </mxGeometry>
        </mxCell>
        <mxCell id="wsNLmnlUrqFCGvk7a0OT-63" value="Get data from DB" style="edgeLabel;html=1;align=center;verticalAlign=middle;resizable=0;points=[];" parent="wsNLmnlUrqFCGvk7a0OT-36" vertex="1" connectable="0">
          <mxGeometry x="0.025" y="-3" relative="1" as="geometry">
            <mxPoint as="offset" />
          </mxGeometry>
        </mxCell>
        <mxCell id="wsNLmnlUrqFCGvk7a0OT-37" value="" style="endArrow=classic;startArrow=classic;html=1;rounded=0;entryX=0.5;entryY=1;entryDx=0;entryDy=0;" parent="1" source="wsNLmnlUrqFCGvk7a0OT-2" target="Yfykrfn6tUtUSNl4Is9B-9" edge="1">
          <mxGeometry width="50" height="50" relative="1" as="geometry">
            <mxPoint x="560" y="1220" as="sourcePoint" />
            <mxPoint x="660" y="1160" as="targetPoint" />
          </mxGeometry>
        </mxCell>
        <mxCell id="wsNLmnlUrqFCGvk7a0OT-62" value="Get data from cache" style="edgeLabel;html=1;align=center;verticalAlign=middle;resizable=0;points=[];" parent="wsNLmnlUrqFCGvk7a0OT-37" vertex="1" connectable="0">
          <mxGeometry x="-0.0546" y="2" relative="1" as="geometry">
            <mxPoint as="offset" />
          </mxGeometry>
        </mxCell>
        <mxCell id="wsNLmnlUrqFCGvk7a0OT-38" value="" style="endArrow=classic;startArrow=classic;html=1;rounded=0;exitX=0.48;exitY=1.018;exitDx=0;exitDy=0;exitPerimeter=0;entryX=0.53;entryY=1.009;entryDx=0;entryDy=0;entryPerimeter=0;" parent="1" source="3fd4jC6mWOSNVd5eNcLv-18" target="wsNLmnlUrqFCGvk7a0OT-33" edge="1">
          <mxGeometry width="50" height="50" relative="1" as="geometry">
            <mxPoint x="9" y="1798.54" as="sourcePoint" />
            <mxPoint x="289" y="1798.54" as="targetPoint" />
            <Array as="points">
              <mxPoint x="12" y="1818.54" />
              <mxPoint x="287" y="1818.54" />
            </Array>
          </mxGeometry>
        </mxCell>
        <mxCell id="wsNLmnlUrqFCGvk7a0OT-40" value="Sync" style="edgeLabel;html=1;align=center;verticalAlign=middle;resizable=0;points=[];" parent="wsNLmnlUrqFCGvk7a0OT-38" vertex="1" connectable="0">
          <mxGeometry x="0.0635" y="1" relative="1" as="geometry">
            <mxPoint as="offset" />
          </mxGeometry>
        </mxCell>
        <mxCell id="wsNLmnlUrqFCGvk7a0OT-39" value="" style="endArrow=classic;startArrow=classic;html=1;rounded=0;" parent="1" target="JOVzsIex6KIDobaa7Ffz-4" edge="1">
          <mxGeometry width="50" height="50" relative="1" as="geometry">
            <mxPoint x="109" y="1818.54" as="sourcePoint" />
            <mxPoint x="219" y="1748.54" as="targetPoint" />
          </mxGeometry>
        </mxCell>
        <mxCell id="wsNLmnlUrqFCGvk7a0OT-61" value="" style="endArrow=classic;html=1;rounded=0;" parent="1" source="wsNLmnlUrqFCGvk7a0OT-2" target="wsNLmnlUrqFCGvk7a0OT-83" edge="1">
          <mxGeometry width="50" height="50" relative="1" as="geometry">
            <mxPoint x="670" y="1390" as="sourcePoint" />
            <mxPoint x="629.5365853658541" y="1460" as="targetPoint" />
          </mxGeometry>
        </mxCell>
        <mxCell id="wsNLmnlUrqFCGvk7a0OT-64" value="PostgreSQL" style="text;html=1;align=center;verticalAlign=middle;resizable=0;points=[];autosize=1;strokeColor=none;fillColor=none;" parent="1" vertex="1">
          <mxGeometry x="-31" y="1845.54" width="90" height="30" as="geometry" />
        </mxCell>
        <mxCell id="wsNLmnlUrqFCGvk7a0OT-67" value="APACHE KAFKA" style="rounded=1;whiteSpace=wrap;html=1;" parent="1" vertex="1">
          <mxGeometry x="100" y="1508.54" width="120" height="60" as="geometry" />
        </mxCell>
        <mxCell id="wsNLmnlUrqFCGvk7a0OT-68" value="" style="endArrow=classic;html=1;rounded=0;exitX=0.5;exitY=1;exitDx=0;exitDy=0;entryX=0.5;entryY=0;entryDx=0;entryDy=0;entryPerimeter=0;" parent="1" source="wsNLmnlUrqFCGvk7a0OT-67" target="3fd4jC6mWOSNVd5eNcLv-9" edge="1">
          <mxGeometry width="50" height="50" relative="1" as="geometry">
            <mxPoint x="269" y="1628.54" as="sourcePoint" />
            <mxPoint x="319" y="1578.54" as="targetPoint" />
          </mxGeometry>
        </mxCell>
        <mxCell id="wsNLmnlUrqFCGvk7a0OT-69" value="" style="endArrow=classic;html=1;rounded=0;exitX=0.5;exitY=1;exitDx=0;exitDy=0;entryX=0.5;entryY=0;entryDx=0;entryDy=0;entryPerimeter=0;" parent="1" source="wsNLmnlUrqFCGvk7a0OT-67" target="JOVzsIex6KIDobaa7Ffz-3" edge="1">
          <mxGeometry width="50" height="50" relative="1" as="geometry">
            <mxPoint x="239" y="1618.54" as="sourcePoint" />
            <mxPoint x="289" y="1568.54" as="targetPoint" />
          </mxGeometry>
        </mxCell>
        <mxCell id="wsNLmnlUrqFCGvk7a0OT-70" value="" style="endArrow=classic;html=1;rounded=0;exitX=0.5;exitY=1;exitDx=0;exitDy=0;entryX=0.49;entryY=0.03;entryDx=0;entryDy=0;entryPerimeter=0;" parent="1" source="wsNLmnlUrqFCGvk7a0OT-67" target="wsNLmnlUrqFCGvk7a0OT-32" edge="1">
          <mxGeometry width="50" height="50" relative="1" as="geometry">
            <mxPoint x="259" y="1618.54" as="sourcePoint" />
            <mxPoint x="309" y="1568.54" as="targetPoint" />
          </mxGeometry>
        </mxCell>
        <mxCell id="wsNLmnlUrqFCGvk7a0OT-72" value="" style="outlineConnect=0;dashed=0;verticalLabelPosition=bottom;verticalAlign=top;align=center;html=1;shape=mxgraph.aws3.elasticsearch_service;fillColor=#F58534;gradientColor=none;" parent="1" vertex="1">
          <mxGeometry x="-45" y="960" width="67.5" height="81" as="geometry" />
        </mxCell>
        <mxCell id="wsNLmnlUrqFCGvk7a0OT-73" value="Elasticsearch" style="text;html=1;align=center;verticalAlign=middle;resizable=0;points=[];autosize=1;strokeColor=none;fillColor=none;" parent="1" vertex="1">
          <mxGeometry x="-60" y="1057" width="90" height="30" as="geometry" />
        </mxCell>
        <mxCell id="wsNLmnlUrqFCGvk7a0OT-75" value="" style="endArrow=classic;html=1;rounded=0;exitX=0;exitY=1;exitDx=0;exitDy=0;" parent="1" source="3fd4jC6mWOSNVd5eNcLv-7" target="wsNLmnlUrqFCGvk7a0OT-72" edge="1">
          <mxGeometry width="50" height="50" relative="1" as="geometry">
            <mxPoint x="120" y="950" as="sourcePoint" />
            <mxPoint x="170" y="900" as="targetPoint" />
          </mxGeometry>
        </mxCell>
        <mxCell id="wsNLmnlUrqFCGvk7a0OT-76" value="Search" style="edgeLabel;html=1;align=center;verticalAlign=middle;resizable=0;points=[];" parent="wsNLmnlUrqFCGvk7a0OT-75" vertex="1" connectable="0">
          <mxGeometry x="0.0161" relative="1" as="geometry">
            <mxPoint y="-1" as="offset" />
          </mxGeometry>
        </mxCell>
        <mxCell id="wsNLmnlUrqFCGvk7a0OT-77" value="" style="endArrow=classic;html=1;rounded=0;exitX=1;exitY=0.79;exitDx=0;exitDy=0;exitPerimeter=0;entryX=0.25;entryY=1;entryDx=0;entryDy=0;" parent="1" source="wsNLmnlUrqFCGvk7a0OT-72" target="3fd4jC6mWOSNVd5eNcLv-7" edge="1">
          <mxGeometry width="50" height="50" relative="1" as="geometry">
            <mxPoint x="160" y="990" as="sourcePoint" />
            <mxPoint x="210" y="940" as="targetPoint" />
          </mxGeometry>
        </mxCell>
        <mxCell id="wsNLmnlUrqFCGvk7a0OT-78" value="Return data" style="edgeLabel;html=1;align=center;verticalAlign=middle;resizable=0;points=[];" parent="wsNLmnlUrqFCGvk7a0OT-77" vertex="1" connectable="0">
          <mxGeometry x="-0.1356" y="-3" relative="1" as="geometry">
            <mxPoint y="1" as="offset" />
          </mxGeometry>
        </mxCell>
        <mxCell id="wsNLmnlUrqFCGvk7a0OT-81" value="" style="endArrow=classic;startArrow=classic;html=1;rounded=0;" parent="1" target="wsNLmnlUrqFCGvk7a0OT-72" edge="1">
          <mxGeometry width="50" height="50" relative="1" as="geometry">
            <mxPoint x="-10" y="1460" as="sourcePoint" />
            <mxPoint x="180" y="1200" as="targetPoint" />
          </mxGeometry>
        </mxCell>
        <mxCell id="wsNLmnlUrqFCGvk7a0OT-82" value="Sync" style="edgeLabel;html=1;align=center;verticalAlign=middle;resizable=0;points=[];" parent="wsNLmnlUrqFCGvk7a0OT-81" vertex="1" connectable="0">
          <mxGeometry x="-0.037" y="-2" relative="1" as="geometry">
            <mxPoint as="offset" />
          </mxGeometry>
        </mxCell>
        <mxCell id="wsNLmnlUrqFCGvk7a0OT-83" value="Region 2" style="sketch=0;outlineConnect=0;gradientColor=none;html=1;whiteSpace=wrap;fontSize=12;fontStyle=0;shape=mxgraph.aws4.group;grIcon=mxgraph.aws4.group_region;strokeColor=#879196;fillColor=none;verticalAlign=top;align=left;spacingLeft=30;fontColor=#879196;dashed=1;" parent="1" vertex="1">
          <mxGeometry x="610" y="1450" width="469" height="433" as="geometry" />
        </mxCell>
        <mxCell id="wsNLmnlUrqFCGvk7a0OT-84" value="" style="shape=cylinder3;whiteSpace=wrap;html=1;boundedLbl=1;backgroundOutline=1;size=15;" parent="1" vertex="1">
          <mxGeometry x="694" y="1623" width="60" height="80" as="geometry" />
        </mxCell>
        <mxCell id="wsNLmnlUrqFCGvk7a0OT-85" value="" style="edgeStyle=orthogonalEdgeStyle;rounded=0;orthogonalLoop=1;jettySize=auto;html=1;" parent="1" source="wsNLmnlUrqFCGvk7a0OT-86" target="wsNLmnlUrqFCGvk7a0OT-94" edge="1">
          <mxGeometry relative="1" as="geometry" />
        </mxCell>
        <mxCell id="wsNLmnlUrqFCGvk7a0OT-86" value="PostgreSQL" style="text;html=1;align=center;verticalAlign=middle;resizable=0;points=[];autosize=1;strokeColor=none;fillColor=none;" parent="1" vertex="1">
          <mxGeometry x="679" y="1710" width="90" height="30" as="geometry" />
        </mxCell>
        <mxCell id="wsNLmnlUrqFCGvk7a0OT-87" value="" style="shape=cylinder3;whiteSpace=wrap;html=1;boundedLbl=1;backgroundOutline=1;size=15;" parent="1" vertex="1">
          <mxGeometry x="789" y="1623" width="60" height="80" as="geometry" />
        </mxCell>
        <mxCell id="wsNLmnlUrqFCGvk7a0OT-88" value="MongoDB" style="text;html=1;align=center;verticalAlign=middle;resizable=0;points=[];autosize=1;strokeColor=none;fillColor=none;" parent="1" vertex="1">
          <mxGeometry x="779" y="1710" width="80" height="30" as="geometry" />
        </mxCell>
        <mxCell id="wsNLmnlUrqFCGvk7a0OT-89" value="" style="image;sketch=0;aspect=fixed;html=1;points=[];align=center;fontSize=12;image=img/lib/mscae/Cache_Redis_Product.svg;" parent="1" vertex="1">
          <mxGeometry x="969" y="1643" width="50" height="42" as="geometry" />
        </mxCell>
        <mxCell id="wsNLmnlUrqFCGvk7a0OT-90" value="Redis cache" style="text;html=1;align=center;verticalAlign=middle;resizable=0;points=[];autosize=1;strokeColor=none;fillColor=none;" parent="1" vertex="1">
          <mxGeometry x="949" y="1693" width="90" height="30" as="geometry" />
        </mxCell>
        <mxCell id="wsNLmnlUrqFCGvk7a0OT-91" value="" style="endArrow=classic;startArrow=classic;html=1;rounded=0;exitX=0.48;exitY=1.018;exitDx=0;exitDy=0;exitPerimeter=0;entryX=0.53;entryY=1.009;entryDx=0;entryDy=0;entryPerimeter=0;" parent="1" source="wsNLmnlUrqFCGvk7a0OT-86" target="wsNLmnlUrqFCGvk7a0OT-90" edge="1">
          <mxGeometry width="50" height="50" relative="1" as="geometry">
            <mxPoint x="719" y="1773" as="sourcePoint" />
            <mxPoint x="999" y="1773" as="targetPoint" />
            <Array as="points">
              <mxPoint x="722" y="1793" />
              <mxPoint x="997" y="1793" />
            </Array>
          </mxGeometry>
        </mxCell>
        <mxCell id="wsNLmnlUrqFCGvk7a0OT-92" value="Sync" style="edgeLabel;html=1;align=center;verticalAlign=middle;resizable=0;points=[];" parent="wsNLmnlUrqFCGvk7a0OT-91" vertex="1" connectable="0">
          <mxGeometry x="0.0635" y="1" relative="1" as="geometry">
            <mxPoint as="offset" />
          </mxGeometry>
        </mxCell>
        <mxCell id="wsNLmnlUrqFCGvk7a0OT-93" value="" style="endArrow=classic;startArrow=classic;html=1;rounded=0;" parent="1" target="wsNLmnlUrqFCGvk7a0OT-88" edge="1">
          <mxGeometry width="50" height="50" relative="1" as="geometry">
            <mxPoint x="819" y="1793" as="sourcePoint" />
            <mxPoint x="929" y="1723" as="targetPoint" />
          </mxGeometry>
        </mxCell>
        <mxCell id="wsNLmnlUrqFCGvk7a0OT-94" value="PostgreSQL" style="text;html=1;align=center;verticalAlign=middle;resizable=0;points=[];autosize=1;strokeColor=none;fillColor=none;" parent="1" vertex="1">
          <mxGeometry x="679" y="1820" width="90" height="30" as="geometry" />
        </mxCell>
        <mxCell id="wsNLmnlUrqFCGvk7a0OT-95" value="APACHE KAFKA" style="rounded=1;whiteSpace=wrap;html=1;" parent="1" vertex="1">
          <mxGeometry x="810" y="1483" width="120" height="60" as="geometry" />
        </mxCell>
        <mxCell id="wsNLmnlUrqFCGvk7a0OT-96" value="" style="endArrow=classic;html=1;rounded=0;exitX=0.5;exitY=1;exitDx=0;exitDy=0;entryX=0.5;entryY=0;entryDx=0;entryDy=0;entryPerimeter=0;" parent="1" source="wsNLmnlUrqFCGvk7a0OT-95" target="wsNLmnlUrqFCGvk7a0OT-84" edge="1">
          <mxGeometry width="50" height="50" relative="1" as="geometry">
            <mxPoint x="979" y="1603" as="sourcePoint" />
            <mxPoint x="1029" y="1553" as="targetPoint" />
          </mxGeometry>
        </mxCell>
        <mxCell id="wsNLmnlUrqFCGvk7a0OT-97" value="" style="endArrow=classic;html=1;rounded=0;exitX=0.5;exitY=1;exitDx=0;exitDy=0;entryX=0.5;entryY=0;entryDx=0;entryDy=0;entryPerimeter=0;" parent="1" source="wsNLmnlUrqFCGvk7a0OT-95" target="wsNLmnlUrqFCGvk7a0OT-87" edge="1">
          <mxGeometry width="50" height="50" relative="1" as="geometry">
            <mxPoint x="949" y="1593" as="sourcePoint" />
            <mxPoint x="999" y="1543" as="targetPoint" />
          </mxGeometry>
        </mxCell>
        <mxCell id="wsNLmnlUrqFCGvk7a0OT-98" value="" style="endArrow=classic;html=1;rounded=0;exitX=0.5;exitY=1;exitDx=0;exitDy=0;entryX=0.49;entryY=0.03;entryDx=0;entryDy=0;entryPerimeter=0;" parent="1" source="wsNLmnlUrqFCGvk7a0OT-95" target="wsNLmnlUrqFCGvk7a0OT-89" edge="1">
          <mxGeometry width="50" height="50" relative="1" as="geometry">
            <mxPoint x="969" y="1593" as="sourcePoint" />
            <mxPoint x="1019" y="1543" as="targetPoint" />
          </mxGeometry>
        </mxCell>
        <mxCell id="wsNLmnlUrqFCGvk7a0OT-99" value="" style="endArrow=classic;startArrow=classic;html=1;rounded=0;" parent="1" edge="1">
          <mxGeometry width="50" height="50" relative="1" as="geometry">
            <mxPoint x="850" y="1910" as="sourcePoint" />
            <mxPoint x="-10" y="1360" as="targetPoint" />
            <Array as="points">
              <mxPoint x="850" y="2040" />
              <mxPoint x="-270" y="2040" />
              <mxPoint x="-270" y="1360" />
            </Array>
          </mxGeometry>
        </mxCell>
        <mxCell id="wsNLmnlUrqFCGvk7a0OT-100" value="" style="dashed=0;outlineConnect=0;html=1;align=center;labelPosition=center;verticalLabelPosition=bottom;verticalAlign=top;shape=mxgraph.weblogos.paypal" parent="1" vertex="1">
          <mxGeometry x="910" y="827.5" width="51.2" height="58" as="geometry" />
        </mxCell>
        <mxCell id="wsNLmnlUrqFCGvk7a0OT-101" value="PAYPAL API" style="text;html=1;align=center;verticalAlign=middle;resizable=0;points=[];autosize=1;strokeColor=none;fillColor=none;" parent="1" vertex="1">
          <mxGeometry x="885" y="892.5" width="90" height="30" as="geometry" />
        </mxCell>
        <mxCell id="wsNLmnlUrqFCGvk7a0OT-102" value="MOMO API" style="rounded=1;whiteSpace=wrap;html=1;" parent="1" vertex="1">
          <mxGeometry x="1030" y="832.5" width="80" height="60" as="geometry" />
        </mxCell>
        <mxCell id="wsNLmnlUrqFCGvk7a0OT-103" value="VISA API" style="rounded=1;whiteSpace=wrap;html=1;" parent="1" vertex="1">
          <mxGeometry x="1150" y="832.5" width="85" height="60" as="geometry" />
        </mxCell>
        <mxCell id="wsNLmnlUrqFCGvk7a0OT-106" value="" style="endArrow=classic;startArrow=classic;html=1;rounded=0;exitX=1;exitY=0.5;exitDx=0;exitDy=0;" parent="1" source="3fd4jC6mWOSNVd5eNcLv-7" edge="1">
          <mxGeometry width="50" height="50" relative="1" as="geometry">
            <mxPoint x="770" y="840" as="sourcePoint" />
            <mxPoint x="1460" y="830" as="targetPoint" />
            <Array as="points">
              <mxPoint x="1460" y="780" />
            </Array>
          </mxGeometry>
        </mxCell>
        <mxCell id="wsNLmnlUrqFCGvk7a0OT-109" value="Payment request" style="edgeLabel;html=1;align=center;verticalAlign=middle;resizable=0;points=[];" parent="wsNLmnlUrqFCGvk7a0OT-106" vertex="1" connectable="0">
          <mxGeometry x="-0.5425" y="2" relative="1" as="geometry">
            <mxPoint as="offset" />
          </mxGeometry>
        </mxCell>
        <mxCell id="wsNLmnlUrqFCGvk7a0OT-107" value="" style="endArrow=classic;startArrow=classic;html=1;rounded=0;exitX=0.5;exitY=0;exitDx=0;exitDy=0;" parent="1" source="wsNLmnlUrqFCGvk7a0OT-102" edge="1">
          <mxGeometry width="50" height="50" relative="1" as="geometry">
            <mxPoint x="1070" y="810" as="sourcePoint" />
            <mxPoint x="1070" y="780" as="targetPoint" />
          </mxGeometry>
        </mxCell>
        <mxCell id="wsNLmnlUrqFCGvk7a0OT-108" value="" style="endArrow=classic;startArrow=classic;html=1;rounded=0;" parent="1" source="wsNLmnlUrqFCGvk7a0OT-100" edge="1">
          <mxGeometry width="50" height="50" relative="1" as="geometry">
            <mxPoint x="930" y="760" as="sourcePoint" />
            <mxPoint x="936" y="780" as="targetPoint" />
          </mxGeometry>
        </mxCell>
        <mxCell id="wsNLmnlUrqFCGvk7a0OT-110" value="ZALO PAY API" style="rounded=1;whiteSpace=wrap;html=1;" parent="1" vertex="1">
          <mxGeometry x="1275" y="833" width="105" height="60" as="geometry" />
        </mxCell>
        <mxCell id="wsNLmnlUrqFCGvk7a0OT-111" value="" style="endArrow=classic;startArrow=classic;html=1;rounded=0;" parent="1" edge="1">
          <mxGeometry width="50" height="50" relative="1" as="geometry">
            <mxPoint x="1190" y="830" as="sourcePoint" />
            <mxPoint x="1190" y="780" as="targetPoint" />
          </mxGeometry>
        </mxCell>
        <mxCell id="wsNLmnlUrqFCGvk7a0OT-112" value="LOGSTASH" style="rounded=1;whiteSpace=wrap;html=1;" parent="1" vertex="1">
          <mxGeometry x="-310" y="960" width="120" height="60" as="geometry" />
        </mxCell>
        <mxCell id="wsNLmnlUrqFCGvk7a0OT-116" value="" style="endArrow=classic;startArrow=classic;html=1;rounded=0;exitX=1;exitY=0.167;exitDx=0;exitDy=0;exitPerimeter=0;entryX=0;entryY=0.75;entryDx=0;entryDy=0;" parent="1" source="wsNLmnlUrqFCGvk7a0OT-112" target="3fd4jC6mWOSNVd5eNcLv-7" edge="1">
          <mxGeometry width="50" height="50" relative="1" as="geometry">
            <mxPoint x="-110" y="930" as="sourcePoint" />
            <mxPoint x="-60" y="880" as="targetPoint" />
          </mxGeometry>
        </mxCell>
        <mxCell id="wsNLmnlUrqFCGvk7a0OT-117" value="Handle log" style="edgeLabel;html=1;align=center;verticalAlign=middle;resizable=0;points=[];" parent="wsNLmnlUrqFCGvk7a0OT-116" vertex="1" connectable="0">
          <mxGeometry x="-0.0638" y="-2" relative="1" as="geometry">
            <mxPoint as="offset" />
          </mxGeometry>
        </mxCell>
        <mxCell id="wsNLmnlUrqFCGvk7a0OT-118" value="PROMETHEUS" style="rounded=1;whiteSpace=wrap;html=1;" parent="1" vertex="1">
          <mxGeometry x="-180" y="530" width="120" height="60" as="geometry" />
        </mxCell>
        <mxCell id="wsNLmnlUrqFCGvk7a0OT-119" value="" style="endArrow=classic;startArrow=classic;html=1;rounded=0;entryX=1;entryY=0.5;entryDx=0;entryDy=0;exitX=0;exitY=0.25;exitDx=0;exitDy=0;" parent="1" source="3fd4jC6mWOSNVd5eNcLv-7" target="wsNLmnlUrqFCGvk7a0OT-118" edge="1">
          <mxGeometry width="50" height="50" relative="1" as="geometry">
            <mxPoint x="70" y="680" as="sourcePoint" />
            <mxPoint x="120" y="630" as="targetPoint" />
          </mxGeometry>
        </mxCell>
        <mxCell id="wsNLmnlUrqFCGvk7a0OT-120" value="Monitor system" style="edgeLabel;html=1;align=center;verticalAlign=middle;resizable=0;points=[];" parent="wsNLmnlUrqFCGvk7a0OT-119" vertex="1" connectable="0">
          <mxGeometry x="-0.0889" y="2" relative="1" as="geometry">
            <mxPoint as="offset" />
          </mxGeometry>
        </mxCell>
        <mxCell id="wsNLmnlUrqFCGvk7a0OT-121" value="Open Banking API" style="rounded=1;whiteSpace=wrap;html=1;" parent="1" vertex="1">
          <mxGeometry x="1010" y="621" width="120" height="60" as="geometry" />
        </mxCell>
        <mxCell id="wsNLmnlUrqFCGvk7a0OT-122" value="" style="endArrow=classic;startArrow=classic;html=1;rounded=0;exitX=1;exitY=0.5;exitDx=0;exitDy=0;entryX=0;entryY=0.5;entryDx=0;entryDy=0;" parent="1" source="3fd4jC6mWOSNVd5eNcLv-7" target="wsNLmnlUrqFCGvk7a0OT-121" edge="1">
          <mxGeometry width="50" height="50" relative="1" as="geometry">
            <mxPoint x="750" y="740" as="sourcePoint" />
            <mxPoint x="800" y="690" as="targetPoint" />
          </mxGeometry>
        </mxCell>
        <mxCell id="wsNLmnlUrqFCGvk7a0OT-123" value="Truy xuất nợ xấu liên ngân hàng" style="edgeLabel;html=1;align=center;verticalAlign=middle;resizable=0;points=[];" parent="wsNLmnlUrqFCGvk7a0OT-122" vertex="1" connectable="0">
          <mxGeometry x="-0.032" y="-1" relative="1" as="geometry">
            <mxPoint as="offset" />
          </mxGeometry>
        </mxCell>
        <mxCell id="wsNLmnlUrqFCGvk7a0OT-125" value="" style="outlineConnect=0;dashed=0;verticalLabelPosition=bottom;verticalAlign=top;align=center;html=1;shape=mxgraph.aws3.ses;fillColor=#D9A741;gradientColor=none;" parent="1" vertex="1">
          <mxGeometry x="895.85" y="490" width="79.5" height="93" as="geometry" />
        </mxCell>
        <mxCell id="wsNLmnlUrqFCGvk7a0OT-126" value="Amazon SES" style="text;html=1;align=center;verticalAlign=middle;resizable=0;points=[];autosize=1;strokeColor=none;fillColor=none;" parent="1" vertex="1">
          <mxGeometry x="890" y="590" width="90" height="30" as="geometry" />
        </mxCell>
        <mxCell id="wsNLmnlUrqFCGvk7a0OT-127" value="" style="endArrow=classic;startArrow=classic;html=1;rounded=0;exitX=0.75;exitY=0;exitDx=0;exitDy=0;entryX=0.235;entryY=0.8;entryDx=0;entryDy=0;entryPerimeter=0;" parent="1" source="3fd4jC6mWOSNVd5eNcLv-7" target="wsNLmnlUrqFCGvk7a0OT-125" edge="1">
          <mxGeometry width="50" height="50" relative="1" as="geometry">
            <mxPoint x="680" y="540" as="sourcePoint" />
            <mxPoint x="730" y="490" as="targetPoint" />
          </mxGeometry>
        </mxCell>
        <mxCell id="wsNLmnlUrqFCGvk7a0OT-128" value="Send email" style="edgeLabel;html=1;align=center;verticalAlign=middle;resizable=0;points=[];" parent="wsNLmnlUrqFCGvk7a0OT-127" vertex="1" connectable="0">
          <mxGeometry x="0.07" y="-1" relative="1" as="geometry">
            <mxPoint as="offset" />
          </mxGeometry>
        </mxCell>
        <mxCell id="wsNLmnlUrqFCGvk7a0OT-129" value="Amazon SNS" style="sketch=0;outlineConnect=0;fontColor=#232F3E;gradientColor=none;strokeColor=#ffffff;fillColor=#232F3E;dashed=0;verticalLabelPosition=middle;verticalAlign=bottom;align=center;html=1;whiteSpace=wrap;fontSize=10;fontStyle=1;spacing=3;shape=mxgraph.aws4.productIcon;prIcon=mxgraph.aws4.sns;" parent="1" vertex="1">
          <mxGeometry x="830" y="340" width="80" height="100" as="geometry" />
        </mxCell>
        <mxCell id="wsNLmnlUrqFCGvk7a0OT-130" value="" style="endArrow=classic;startArrow=classic;html=1;rounded=0;" parent="1" source="3fd4jC6mWOSNVd5eNcLv-7" target="wsNLmnlUrqFCGvk7a0OT-129" edge="1">
          <mxGeometry width="50" height="50" relative="1" as="geometry">
            <mxPoint x="590" y="660" as="sourcePoint" />
            <mxPoint x="640" y="610" as="targetPoint" />
          </mxGeometry>
        </mxCell>
        <mxCell id="wsNLmnlUrqFCGvk7a0OT-131" value="Send SMS" style="edgeLabel;html=1;align=center;verticalAlign=middle;resizable=0;points=[];" parent="wsNLmnlUrqFCGvk7a0OT-130" vertex="1" connectable="0">
          <mxGeometry x="0.1114" y="2" relative="1" as="geometry">
            <mxPoint y="-1" as="offset" />
          </mxGeometry>
        </mxCell>
        <mxCell id="wsNLmnlUrqFCGvk7a0OT-132" value="CRYPT API" style="rounded=1;whiteSpace=wrap;html=1;" parent="1" vertex="1">
          <mxGeometry x="1420" y="833" width="90" height="60" as="geometry" />
        </mxCell>
        <mxCell id="wsNLmnlUrqFCGvk7a0OT-133" value="" style="endArrow=classic;startArrow=classic;html=1;rounded=0;exitX=0.5;exitY=0;exitDx=0;exitDy=0;" parent="1" source="wsNLmnlUrqFCGvk7a0OT-110" edge="1">
          <mxGeometry width="50" height="50" relative="1" as="geometry">
            <mxPoint x="1320" y="780" as="sourcePoint" />
            <mxPoint x="1328" y="780" as="targetPoint" />
          </mxGeometry>
        </mxCell>
      </root>
    </mxGraphModel>
  </diagram>
</mxfile>
